Hellboy The Golden Army 2008 BluRay 1080p DTS dxva-LoNeWolf

Movie has been tested and is DXVA Compliant

General Information:

RUNTIME........: 1h 59mn
SIZE...........: 9.23 GiB
VIDEO CODEC....: x264 (L4.1)
RESOLUTION.....: 1920x1040
BITRATE........: Overall bit rate :11.0 Mbps 
FRAMERATE......: 23.976 fps
AUDIO 1........: English A_DTS 1510 Kbps 6 Channels
SUBTITLES......: English / Spanish / French 
CHAPTERS.......: YES
SOURCE.........: NTSC Blu-ray 
ENCODED DATE...: UTC 2011-02-26 13:57:14  
Encoder........: TequilaBob a.k.a. LoNeWoLf
GENRE..........: Action , Adventure , Fantasy 
RATING.........:  7.3/10 (65,806 votes) 323 reviews | Critics: 309 reviews Metascore: 78/100
Release Date...: 11 July 2008 (USA) 
Rated..........: Rated PG-13 for sequences of sci-fi action and violence, and some language 
IMDB link......: http://www.imdb.com/title/tt0411477/
 

Director: Guillermo del Toro
Writers: Guillermo del Toro (screenplay), Guillermo del Toro (story)
Stars:Ron Perlman, Selma Blair, Doug Jones  
 
Storyline
In this continuation to the adventure of the demon superhero, an evil elf breaks an ancient pact between humans and creatures, as he declares war against humanity. He is on a mission to release The Golden Army, a deadly group of fighting machines that can destroy the human race. As Hell on Earth is ready to erupt, Hellboy and his crew set out to defeat the evil prince before The Golden Army can destroy humanity's existence. Written by ctfabian   

Cast
Cast overview, first billed only: 
  Ron Perlman  ...  Hellboy  
  Selma Blair  ...  Liz  
  Doug Jones  ...  Abe Sapien / Chamberlain / Angel of Death  
  John Alexander  ...  Johann Krauss / Bethmoora Goblin  
  James Dodd  ...  Johann Krauss  
  Seth MacFarlane  ...  Johann (voice)  
  Luke Goss  ...  Prince Nuada  
  Anna Walton  ...  Princess Nuala  
  Jeffrey Tambor  ...  Tom Manning  
  John Hurt  ...  Professor Broom  
  Brian Steele  ...  Wink / Cronie / Spice Shop Troll / Cathedral Head / Fragglewump  
  Andrew Hefler  ...  Agent Flint  
  Iván Kamarás  ...  Agent Steel  
  Mike Kelly  ...  Agent Marble  
  Jeremy Zimmerman  ...  Auctioneer (as Jeremy Zimmermann) 


[img]http://torrent-stats.info/ffb1/136a50575.png[/img]


Format : Matroska 
File size : 9.23 GiB 
Duration : 1h 59mn 
Overall bit rate : 11.0 Mbps 
Encoded date : UTC 2011-02-26 13:57:14 
Writing application : mkvmerge v4.4.0 ('Die Wiederkehr') built on Oct 31 2010 21:52:48 
Writing library : libebml v1.0.0 + libmatroska v1.0.0 

Video 
ID : 1 
Format : AVC 
Format/Info : Advanced Video Codec 
Format profile : High@L4.1 
Format settings, CABAC : Yes 
Format settings, ReFrames : 3 frames 
Muxing mode : Container profile=Unknown@4.1 
Codec ID : V_MPEG4/ISO/AVC 
Duration : 1h 59mn 
Bit rate : 9 499 Kbps 
Width : 1 920 pixels 
Height : 1 040 pixels 
Display aspect ratio : 16:9 
Frame rate : 23.976 fps 
Color space : YUV 
Chroma subsampling : 4:2:0 
Bit depth : 8 bits 
Scan type : Progressive 
Bits/(Pixel*Frame) : 0.198 
Stream size : 7.78 GiB (84%) 
Writing library : x264 core 112 r1867 22bfd31 
Encoding settings : cabac=1 / ref=4 / deblock=1:-3:-3 / analyse=0x3:0x113 / me=umh / subme=9 / psy=1 / psy_rd=1.00:0.08 / mixed_ref=1 / me_range=32 / chroma_me=1 / trellis=2 / 8x8dct=1 / cqm=0 / deadzone=21,11 / fast_pskip=0 / chroma_qp_offset=-3 / threads=6 / sliced_threads=0 / nr=0 / decimate=0 / interlaced=0 / constrained_intra=0 / bframes=6 / b_pyramid=1 / b_adapt=1 / b_bias=0 / direct=1 / weightb=1 / open_gop=2 / weightp=2 / keyint=250 / keyint_min=23 / scenecut=40 / intra_refresh=0 / rc_lookahead=100 / rc=2pass / mbtree=1 / bitrate=9499 / ratetol=1.0 / qcomp=0.60 / qpmin=10 / qpmax=51 / qpstep=4 / cplxblur=20.0 / qblur=0.5 / vbv_maxrate=50000 / vbv_bufsize=50000 / nal_hrd=none / ip_ratio=1.40 / aq=1:1.50 
Language : English 

Audio 
ID : 2 
Format : DTS 
Format/Info : Digital Theater Systems 
Codec ID : A_DTS 
Duration : 1h 59mn 
Bit rate mode : Constant 
Bit rate : 1 510 Kbps 
Channel(s) : 6 channels 
Channel positions : Front: L C R, Side: L R, LFE 
Sampling rate : 48.0 KHz 
Bit depth : 24 bits 
Video delay : 10ms 
Stream size : 1.26 GiB (14%) 
Title : 3/2+1 
Language : English 

Text 
ID : 3 
Format : PGS 
Codec ID : S_HDMV/PGS 
Codec ID/Info : The same subtitle format used on BDs/HD-DVDs 
Language : English Spanish  French 



Menu & 19 Chapters




See all 20 full size 1920x1040 PNG files at the link below
 
http://s1015.photobucket.com/albums/af279/tequila-bob/Hellboy2/


 
http://www.imagebam.com/image/cb7593121851189
 
http://www.imagebam.com/image/7f196d121851230
 
http://www.imagebam.com/image/8c24a8121851262
 
http://www.imagebam.com/image/06020a121851287
 
http://www.imagebam.com/image/5c35cb121851349
 
http://www.imagebam.com/image/458ce3121851481
